<svg version="1.2" xmlns="http://www.w3.org/2000/svg" viewBox="0 0 72 77" width="72" height="77"><style></style><path fill-rule="evenodd" d="m72 60.1c0 3.7-2.1 7-5.5 8.7l-6.6 3.2c-2.6 3.1-6.5 5-10.9 5h-9.3c-7.9 0-14.3-6.3-14.3-14.1v-11.4c0-0.7 0.6-1.3 1.4-1.3h35.2c0.7 0 1.3 0.6 1.3 1.3v2.9h2.9c3.2 0 5.8 2.5 5.8 5.7zm-11.3-1.2h-32.6v1.2h32.6zm-32.6-6.1v3.5h32.6v-3.5zm32.6 10.1v-0.1h-32.6v0.1c0 6.3 5.2 11.5 11.7 11.5h9.2c6.5 0 11.7-5.2 11.7-11.5zm8.7-2.8c0-1.7-1.4-3.1-3.2-3.1h-2.9v5.9c0 1.8-0.3 3.5-0.9 5l3-1.4c2.5-1.2 4-3.7 4-6.4zm-43.5 10.2c0 0.7-0.6 1.3-1.4 1.3h-23.2c-0.7 0-1.3-0.6-1.3-1.3v-59c0-0.7 0.6-1.3 1.3-1.3h42.2c0.7 0 1.3 0.6 1.3 1.3v35.2c0 0.7-0.6 1.3-1.3 1.3-0.7 0-1.3-0.6-1.3-1.3v-33.9h-39.5v56.4h21.8c0.8 0 1.4 0.6 1.4 1.3zm-5.1-43.1c0 0.7-0.6 1.3-1.3 1.3h-12c-0.7 0-1.3-0.6-1.3-1.3v-9.9c0-0.7 0.6-1.3 1.3-1.3h12c0.7 0 1.3 0.6 1.3 1.3zm-2.6-8.5h-9.4v7.2h9.4zm2.6 14c0 0.8-0.6 1.3-1.3 1.3h-12c-0.7 0-1.3-0.5-1.3-1.3 0-0.7 0.6-1.3 1.3-1.3h12c0.7 0 1.3 0.6 1.3 1.3zm0 5.2c0 0.7-0.6 1.3-1.3 1.3h-12c-0.7 0-1.3-0.6-1.3-1.3 0-0.8 0.6-1.3 1.3-1.3h12c0.7 0 1.3 0.5 1.3 1.3zm0 5.1c0 0.7-0.6 1.3-1.3 1.3h-12c-0.7 0-1.3-0.6-1.3-1.3 0-0.7 0.6-1.3 1.3-1.3h12c0.7 0 1.3 0.6 1.3 1.3zm0 5.1c0 0.7-0.6 1.3-1.3 1.3h-12c-0.7 0-1.3-0.6-1.3-1.3 0-0.7 0.6-1.3 1.3-1.3h12c0.7 0 1.3 0.6 1.3 1.3zm0 5.1c0 0.7-0.6 1.3-1.3 1.3h-12c-0.7 0-1.3-0.6-1.3-1.3 0-0.7 0.6-1.3 1.3-1.3h12c0.7 0 1.3 0.6 1.3 1.3zm0 5.1c0 0.8-0.6 1.3-1.3 1.3h-12c-0.7 0-1.3-0.5-1.3-1.3 0-0.7 0.6-1.3 1.3-1.3h12c0.7 0 1.3 0.6 1.3 1.3zm0 5.2c0 0.7-0.6 1.3-1.3 1.3h-12c-0.7 0-1.3-0.6-1.3-1.3 0-0.8 0.6-1.3 1.3-1.3h12c0.7 0 1.3 0.5 1.3 1.3zm17.9-46.1c0 0.8-0.6 1.3-1.4 1.3h-12c-0.7 0-1.3-0.5-1.3-1.3 0-0.7 0.6-1.3 1.3-1.3h12c0.8 0 1.4 0.6 1.4 1.3zm0 5.2c0 0.7-0.6 1.3-1.4 1.3h-12c-0.7 0-1.3-0.6-1.3-1.3 0-0.8 0.6-1.3 1.3-1.3h12c0.8 0 1.4 0.5 1.4 1.3zm0 5.1c0 0.7-0.6 1.3-1.4 1.3h-12c-0.7 0-1.3-0.6-1.3-1.3 0-0.7 0.6-1.3 1.3-1.3h12c0.8 0 1.4 0.6 1.4 1.3zm0 5.1c0 0.7-0.6 1.3-1.4 1.3h-12c-0.7 0-1.3-0.6-1.3-1.3 0-0.7 0.6-1.3 1.3-1.3h12c0.8 0 1.4 0.6 1.4 1.3zm0 5.4v8.4c0 0.7-0.6 1.3-1.4 1.3h-12c-0.7 0-1.3-0.6-1.3-1.3v-8.4c0-0.7 0.6-1.3 1.3-1.3h12c0.8 0 1.4 0.6 1.4 1.3zm-2.7 1.3h-9.3v5.8h9.3zm4.8-33.5c2.6-3.7 6.8-5.9 11.3-5.9 7.5 0 13.7 6.1 13.7 13.6 0 7.4-6.2 13.5-13.7 13.5q-2.8 0-5.3-1.1c-0.7-0.3-1-1-0.7-1.7 0.2-0.6 1-1 1.7-0.7q2 0.9 4.3 0.9c6.1 0 11-4.9 11-10.9 0-6.1-4.9-11-11-11-3.6 0-7 1.8-9.1 4.8-0.4 0.5-1.2 0.7-1.8 0.3-0.6-0.4-0.8-1.2-0.4-1.8zm5.5 7.7c0-0.8 0.6-1.3 1.4-1.3h3.1v-2.9c0-0.7 0.6-1.3 1.3-1.3 0.7 0 1.3 0.6 1.3 1.3v4.2c0 0.7-0.6 1.3-1.3 1.3h-4.4c-0.8 0-1.4-0.6-1.4-1.3z"/></svg>