<svg version="1.2" xmlns="http://www.w3.org/2000/svg" viewBox="0 0 82 60" width="82" height="60"><style></style><path fill-rule="evenodd" d="m82 9.1v49.4c0 0.8-0.7 1.5-1.5 1.5h-79c-0.8 0-1.5-0.7-1.5-1.5v-49.4c0-0.9 0.7-1.6 1.5-1.6h3.6v-3.4c0-0.7 0.6-1.4 1.4-1.5l20.9-2.4c4.7-0.6 9.4 0.2 13.6 2.2 4.2-2 8.9-2.8 13.6-2.2l20.9 2.4c0.8 0.1 1.4 0.8 1.4 1.5v3.4h3.6c0.8 0 1.5 0.7 1.5 1.6zm-39.5-4v44.6c3.8-1.5 8-2.1 12.1-1.6l19.3 2.3v-44.9l-19.6-2.3c-4.1-0.5-8.1 0.2-11.8 1.9zm-34.4 0.4v44.9l19.3-2.3q1.4-0.1 2.9-0.1c3.1 0 6.3 0.6 9.2 1.7v-44.6c-3.7-1.7-7.7-2.4-11.8-1.9zm70.9 51.5v-46.4h-2.1v41.5c0 0.4-0.2 0.8-0.5 1.1-0.3 0.3-0.7 0.4-1 0.4q-0.1 0-0.2 0l-20.9-2.5c-4.4-0.5-8.7 0.3-12.6 2.3-0.5 0.3-1 0.3-1.4 0-3.9-2-8.2-2.8-12.6-2.3l-20.9 2.5c-0.4 0-0.9-0.1-1.2-0.4-0.3-0.3-0.5-0.7-0.5-1.1v-41.5h-2.1v46.4zm-34.8-46.4c-0.3-0.8 0.2-1.6 1-1.8 3.1-0.9 6.3-1.1 9.4-0.7l15.7 1.8c0.9 0.1 1.4 0.9 1.4 1.7-0.1 0.8-0.8 1.3-1.5 1.3q-0.1 0-0.2 0l-15.7-1.8c-2.8-0.4-5.6-0.2-8.3 0.6-0.8 0.2-1.6-0.3-1.8-1.1zm-33.9 1c-0.1-0.8 0.5-1.6 1.4-1.7l15.7-1.8c3.1-0.4 6.3-0.2 9.4 0.7 0.8 0.2 1.3 1 1 1.8-0.2 0.8-1 1.3-1.8 1.1-2.7-0.8-5.5-1-8.3-0.6l-15.7 1.8q-0.1 0-0.2 0c-0.7 0-1.4-0.5-1.5-1.3zm33.9 5.9c-0.3-0.8 0.2-1.6 1-1.8 3.1-0.8 6.3-1.1 9.4-0.7l15.7 1.8c0.9 0.1 1.4 0.9 1.4 1.7-0.1 0.8-0.8 1.3-1.5 1.3q-0.1 0-0.2 0l-15.7-1.8c-2.8-0.3-5.6-0.1-8.3 0.6-0.8 0.2-1.6-0.3-1.8-1.1zm-33.9 1c-0.1-0.8 0.5-1.6 1.4-1.7l15.7-1.8c3.1-0.4 6.3-0.1 9.4 0.7 0.8 0.2 1.3 1 1 1.8-0.2 0.8-1 1.3-1.8 1.1-2.7-0.7-5.5-0.9-8.3-0.6l-15.7 1.8q-0.1 0-0.2 0c-0.7 0-1.4-0.5-1.5-1.3zm33.9 6c-0.3-0.8 0.2-1.7 1-1.9 3.1-0.8 6.3-1.1 9.4-0.7l15.7 1.9c0.9 0.1 1.4 0.8 1.4 1.6-0.1 0.8-0.8 1.4-1.5 1.4q-0.1 0-0.2 0l-15.7-1.9c-2.8-0.3-5.6-0.1-8.3 0.6-0.8 0.3-1.6-0.2-1.8-1zm-33.9 0.9c-0.1-0.8 0.5-1.5 1.4-1.6l15.7-1.9c3.1-0.4 6.3-0.1 9.4 0.7 0.8 0.2 1.3 1.1 1 1.9-0.2 0.8-1 1.3-1.8 1-2.7-0.7-5.5-0.9-8.3-0.6l-15.7 1.9q-0.1 0-0.2 0c-0.7 0-1.4-0.6-1.5-1.4zm33.9 6c-0.3-0.8 0.2-1.6 1-1.9 3.1-0.8 6.3-1 9.4-0.7l15.7 1.9c0.9 0.1 1.4 0.8 1.4 1.7-0.1 0.7-0.8 1.3-1.5 1.3q-0.1 0-0.2 0l-15.7-1.9c-2.8-0.3-5.6-0.1-8.3 0.7-0.8 0.2-1.6-0.3-1.8-1.1zm-33.9 1c-0.1-0.9 0.5-1.6 1.4-1.7l15.7-1.9c3.1-0.3 6.3-0.1 9.4 0.7 0.8 0.3 1.3 1.1 1 1.9-0.2 0.8-1 1.3-1.8 1.1-2.7-0.8-5.5-1-8.3-0.7l-15.7 1.9q-0.1 0-0.2 0c-0.7 0-1.4-0.6-1.5-1.3zm61.4 6.9c-0.1 0.8-0.8 1.3-1.5 1.3q-0.1 0-0.2 0l-15.7-1.8c-2.8-0.4-5.6-0.1-8.3 0.6-0.8 0.2-1.6-0.3-1.8-1.1-0.3-0.8 0.2-1.6 1-1.8 3.1-0.9 6.3-1.1 9.4-0.7l15.7 1.8c0.9 0.1 1.4 0.9 1.4 1.7zm-61.4 0c-0.1-0.8 0.5-1.6 1.4-1.7l15.7-1.8c3.1-0.4 6.3-0.2 9.4 0.7 0.8 0.2 1.3 1 1 1.8-0.2 0.8-1 1.3-1.8 1.1-2.7-0.7-5.5-1-8.3-0.6l-15.7 1.8q-0.1 0-0.2 0c-0.7 0-1.4-0.5-1.5-1.3z"/></svg>